<mxfile host="app.diagrams.net" modified="2023-07-19T15:40:50.359Z" agent="Mozilla/5.0 (Macintosh; Intel Mac OS X 10_15_7) AppleWebKit/537.36 (KHTML, like Gecko) Chrome/114.0.0.0 Safari/537.36" etag="rXVreJRZ9WZlYV9Ccc_B" version="21.6.3" type="device">
  <diagram name="Page-1" id="XU-H3b0H9svQiFO6w6KL">
    <mxGraphModel dx="1312" dy="1652" grid="1" gridSize="10" guides="1" tooltips="1" connect="1" arrows="1" fold="1" page="1" pageScale="1" pageWidth="1169" pageHeight="827" math="0" shadow="0">
      <root>
        <mxCell id="0" />
        <mxCell id="1" parent="0" />
        <mxCell id="dbXTDxh36JsevE1TjSYH-10" value="" style="rounded=1;whiteSpace=wrap;html=1;dashed=1;fillColor=none;fontColor=#000099;strokeColor=#FFB570;" parent="1" vertex="1">
          <mxGeometry x="330" y="185" width="330" height="340" as="geometry" />
        </mxCell>
        <mxCell id="dbXTDxh36JsevE1TjSYH-42" value="" style="rounded=0;whiteSpace=wrap;html=1;fillColor=#ffffff;" parent="1" vertex="1">
          <mxGeometry x="190" y="-110" width="1120" height="770" as="geometry" />
        </mxCell>
        <mxCell id="Qt3NXMY1zpIQPhPqf40f-8" value="" style="image;sketch=0;aspect=fixed;html=1;points=[];align=center;fontSize=12;image=img/lib/mscae/Key_Vaults.svg;fontColor=#000099;strokeColor=#FFB570;" parent="1" vertex="1">
          <mxGeometry x="1140" y="500" width="81.6" height="85" as="geometry" />
        </mxCell>
        <mxCell id="ibY6LeiVj6x5H_j3fpKV-11" style="edgeStyle=orthogonalEdgeStyle;rounded=0;orthogonalLoop=1;jettySize=auto;html=1;" edge="1" parent="1" source="Qt3NXMY1zpIQPhPqf40f-11" target="ibY6LeiVj6x5H_j3fpKV-2">
          <mxGeometry relative="1" as="geometry" />
        </mxCell>
        <mxCell id="Qt3NXMY1zpIQPhPqf40f-11" value="" style="image;aspect=fixed;html=1;points=[];align=center;fontSize=12;image=img/lib/azure2/networking/Network_Security_Groups.svg;fontColor=#000099;strokeColor=#FFB570;" parent="1" vertex="1">
          <mxGeometry x="966.5" y="139" width="28.83" height="35" as="geometry" />
        </mxCell>
        <mxCell id="ibY6LeiVj6x5H_j3fpKV-10" style="edgeStyle=orthogonalEdgeStyle;rounded=0;orthogonalLoop=1;jettySize=auto;html=1;entryX=0.5;entryY=1;entryDx=0;entryDy=0;" edge="1" parent="1" source="Qt3NXMY1zpIQPhPqf40f-12" target="dbXTDxh36JsevE1TjSYH-27">
          <mxGeometry relative="1" as="geometry" />
        </mxCell>
        <mxCell id="ibY6LeiVj6x5H_j3fpKV-13" style="edgeStyle=orthogonalEdgeStyle;rounded=0;orthogonalLoop=1;jettySize=auto;html=1;entryX=-0.046;entryY=0.565;entryDx=0;entryDy=0;entryPerimeter=0;" edge="1" parent="1" source="Qt3NXMY1zpIQPhPqf40f-12" target="ibY6LeiVj6x5H_j3fpKV-12">
          <mxGeometry relative="1" as="geometry" />
        </mxCell>
        <mxCell id="Qt3NXMY1zpIQPhPqf40f-12" value="" style="image;sketch=0;aspect=fixed;html=1;points=[];align=center;fontSize=12;image=img/lib/mscae/Virtual_Machine.svg;fontColor=#000099;strokeColor=#FFB570;" parent="1" vertex="1">
          <mxGeometry x="960" y="282" width="50" height="46" as="geometry" />
        </mxCell>
        <mxCell id="Qt3NXMY1zpIQPhPqf40f-14" value="" style="image;aspect=fixed;html=1;points=[];align=center;fontSize=12;image=img/lib/azure2/storage/Storage_Accounts.svg;fontColor=#000099;strokeColor=#FFB570;" parent="1" vertex="1">
          <mxGeometry x="480.42" y="429" width="65" height="52" as="geometry" />
        </mxCell>
        <mxCell id="dbXTDxh36JsevE1TjSYH-3" value="Key Vault" style="text;html=1;strokeColor=none;fillColor=none;align=center;verticalAlign=middle;whiteSpace=wrap;rounded=0;fontColor=#000099;" parent="1" vertex="1">
          <mxGeometry x="1147.42" y="585" width="60" height="30" as="geometry" />
        </mxCell>
        <mxCell id="ibY6LeiVj6x5H_j3fpKV-16" style="edgeStyle=orthogonalEdgeStyle;rounded=0;orthogonalLoop=1;jettySize=auto;html=1;" edge="1" parent="1" source="dbXTDxh36JsevE1TjSYH-15" target="Qt3NXMY1zpIQPhPqf40f-14">
          <mxGeometry relative="1" as="geometry" />
        </mxCell>
        <mxCell id="ibY6LeiVj6x5H_j3fpKV-23" value="" style="edgeStyle=orthogonalEdgeStyle;rounded=0;orthogonalLoop=1;jettySize=auto;html=1;" edge="1" parent="1" source="dbXTDxh36JsevE1TjSYH-15" target="1RaYKFJEqEAShc90S2Od-1">
          <mxGeometry relative="1" as="geometry" />
        </mxCell>
        <mxCell id="dbXTDxh36JsevE1TjSYH-15" value="" style="image;sketch=0;aspect=fixed;html=1;points=[];align=center;fontSize=12;image=img/lib/mscae/Virtual_Machine.svg;fontColor=#000099;strokeColor=#FFB570;" parent="1" vertex="1">
          <mxGeometry x="487.92" y="285" width="50" height="46" as="geometry" />
        </mxCell>
        <mxCell id="dbXTDxh36JsevE1TjSYH-19" value="Peering" style="text;html=1;strokeColor=none;fillColor=none;align=center;verticalAlign=middle;whiteSpace=wrap;rounded=0;fontColor=#000099;" parent="1" vertex="1">
          <mxGeometry x="678" y="109" width="60" height="13" as="geometry" />
        </mxCell>
        <mxCell id="dbXTDxh36JsevE1TjSYH-21" value="" style="edgeStyle=orthogonalEdgeStyle;rounded=0;orthogonalLoop=1;jettySize=auto;html=1;entryX=1.014;entryY=0.472;entryDx=0;entryDy=0;entryPerimeter=0;fillColor=#a20025;strokeColor=#990000;fontColor=#000099;" parent="1" target="dbXTDxh36JsevE1TjSYH-15" edge="1" source="ibY6LeiVj6x5H_j3fpKV-19">
          <mxGeometry relative="1" as="geometry">
            <mxPoint x="680" y="368" as="sourcePoint" />
          </mxGeometry>
        </mxCell>
        <mxCell id="dbXTDxh36JsevE1TjSYH-24" style="edgeStyle=orthogonalEdgeStyle;rounded=0;orthogonalLoop=1;jettySize=auto;html=1;strokeColor=#990000;fontColor=#000099;" parent="1" target="Qt3NXMY1zpIQPhPqf40f-12" edge="1" source="ibY6LeiVj6x5H_j3fpKV-21">
          <mxGeometry relative="1" as="geometry">
            <mxPoint x="730" y="368" as="sourcePoint" />
            <Array as="points">
              <mxPoint x="880" y="369" />
              <mxPoint x="880" y="305" />
            </Array>
          </mxGeometry>
        </mxCell>
        <mxCell id="Qt3NXMY1zpIQPhPqf40f-7" value="" style="image;aspect=fixed;html=1;points=[];align=center;fontSize=12;image=img/lib/azure2/networking/Virtual_Networks.svg;fontColor=#000099;strokeColor=#FFB570;" parent="1" vertex="1">
          <mxGeometry x="267.75" y="30" width="117.25" height="70" as="geometry" />
        </mxCell>
        <mxCell id="dbXTDxh36JsevE1TjSYH-25" value="App-vnet" style="text;html=1;strokeColor=none;fillColor=none;align=center;verticalAlign=middle;whiteSpace=wrap;rounded=0;fontColor=#000099;" parent="1" vertex="1">
          <mxGeometry x="291" width="60" height="30" as="geometry" />
        </mxCell>
        <mxCell id="dbXTDxh36JsevE1TjSYH-26" value="Management-vnet" style="text;html=1;strokeColor=none;fillColor=none;align=center;verticalAlign=middle;whiteSpace=wrap;rounded=0;fontColor=#000099;" parent="1" vertex="1">
          <mxGeometry x="1087.25" y="-9.5" width="100" height="30" as="geometry" />
        </mxCell>
        <mxCell id="dbXTDxh36JsevE1TjSYH-27" value="&lt;p style=&quot;line-height: 110%; font-size: 9px;&quot;&gt;Management Subnet&lt;br&gt;with NSG&lt;/p&gt;" style="text;html=1;strokeColor=none;fillColor=none;align=center;verticalAlign=middle;whiteSpace=wrap;rounded=0;fontColor=#000099;" parent="1" vertex="1">
          <mxGeometry x="935.91" y="174" width="90" height="30" as="geometry" />
        </mxCell>
        <mxCell id="dbXTDxh36JsevE1TjSYH-30" value="SQL DB" style="text;html=1;strokeColor=none;fillColor=none;align=center;verticalAlign=middle;whiteSpace=wrap;rounded=0;fontColor=#000099;" parent="1" vertex="1">
          <mxGeometry x="687" y="399" width="60" height="30" as="geometry" />
        </mxCell>
        <mxCell id="dbXTDxh36JsevE1TjSYH-31" value="&lt;p style=&quot;line-height: 110%; font-size: 9px;&quot;&gt;App Gateway Subnet and Backend Subnet with NSG for VMSS&lt;/p&gt;" style="text;html=1;strokeColor=none;fillColor=none;align=center;verticalAlign=middle;whiteSpace=wrap;rounded=0;fontColor=#000099;" parent="1" vertex="1">
          <mxGeometry x="397.92" y="185" width="130" height="30" as="geometry" />
        </mxCell>
        <mxCell id="dbXTDxh36JsevE1TjSYH-36" value="Web Server" style="text;html=1;strokeColor=none;fillColor=none;align=center;verticalAlign=middle;whiteSpace=wrap;rounded=0;fontColor=#000099;" parent="1" vertex="1">
          <mxGeometry x="472.92" y="331" width="80" height="30" as="geometry" />
        </mxCell>
        <mxCell id="dbXTDxh36JsevE1TjSYH-37" value="Management Server" style="text;html=1;strokeColor=none;fillColor=none;align=center;verticalAlign=middle;whiteSpace=wrap;rounded=0;fontColor=#000099;" parent="1" vertex="1">
          <mxGeometry x="925" y="340" width="120" height="30" as="geometry" />
        </mxCell>
        <mxCell id="dbXTDxh36JsevE1TjSYH-38" value="Storage Account" style="text;html=1;strokeColor=none;fillColor=none;align=center;verticalAlign=middle;whiteSpace=wrap;rounded=0;fontColor=#000099;" parent="1" vertex="1">
          <mxGeometry x="462.92" y="479" width="100" height="32" as="geometry" />
        </mxCell>
        <mxCell id="dbXTDxh36JsevE1TjSYH-40" value="&lt;div style=&quot;font-family: Menlo, Monaco, &amp;quot;Courier New&amp;quot;, monospace; line-height: 18px;&quot;&gt;&lt;span style=&quot;background-color: rgb(255, 255, 255);&quot;&gt;&lt;font color=&quot;#080808&quot;&gt;10.20.20.0/24&lt;/font&gt;&lt;/span&gt;&lt;/div&gt;" style="text;html=1;strokeColor=none;fillColor=none;align=center;verticalAlign=middle;whiteSpace=wrap;rounded=0;" parent="1" vertex="1">
          <mxGeometry x="1087.25" y="-30.5" width="93" height="30" as="geometry" />
        </mxCell>
        <mxCell id="dbXTDxh36JsevE1TjSYH-41" value="&lt;div style=&quot;font-family: Menlo, Monaco, &amp;quot;Courier New&amp;quot;, monospace; line-height: 18px;&quot;&gt;&lt;span style=&quot;background-color: rgb(255, 255, 255);&quot;&gt;&lt;font color=&quot;#080808&quot;&gt;10.10.10.0/24&lt;/font&gt;&lt;/span&gt;&lt;/div&gt;" style="text;html=1;align=center;verticalAlign=middle;whiteSpace=wrap;rounded=0;fillColor=none;" parent="1" vertex="1">
          <mxGeometry x="295" y="-20" width="60" height="30" as="geometry" />
        </mxCell>
        <mxCell id="ibY6LeiVj6x5H_j3fpKV-15" style="edgeStyle=orthogonalEdgeStyle;rounded=0;orthogonalLoop=1;jettySize=auto;html=1;entryX=1;entryY=0.423;entryDx=0;entryDy=0;entryPerimeter=0;" edge="1" parent="1" source="JJQ9AiGBg8sY08W0kX3o-1" target="1RaYKFJEqEAShc90S2Od-1">
          <mxGeometry relative="1" as="geometry">
            <Array as="points">
              <mxPoint x="714" y="153" />
            </Array>
          </mxGeometry>
        </mxCell>
        <mxCell id="JJQ9AiGBg8sY08W0kX3o-1" value="" style="image;aspect=fixed;html=1;points=[];align=center;fontSize=12;image=img/lib/azure2/databases/SQL_Database.svg;" parent="1" vertex="1">
          <mxGeometry x="690" y="331" width="48" height="64" as="geometry" />
        </mxCell>
        <mxCell id="ibY6LeiVj6x5H_j3fpKV-9" style="edgeStyle=orthogonalEdgeStyle;rounded=0;orthogonalLoop=1;jettySize=auto;html=1;" edge="1" parent="1" source="1RaYKFJEqEAShc90S2Od-1" target="Qt3NXMY1zpIQPhPqf40f-7">
          <mxGeometry relative="1" as="geometry" />
        </mxCell>
        <mxCell id="1RaYKFJEqEAShc90S2Od-1" value="" style="image;aspect=fixed;html=1;points=[];align=center;fontSize=12;image=img/lib/azure2/networking/Network_Security_Groups.svg;fontColor=#000099;strokeColor=#FFB570;" parent="1" vertex="1">
          <mxGeometry x="449.42" y="139" width="27.92" height="33.9" as="geometry" />
        </mxCell>
        <mxCell id="1RaYKFJEqEAShc90S2Od-11" style="edgeStyle=orthogonalEdgeStyle;rounded=0;orthogonalLoop=1;jettySize=auto;html=1;strokeColor=#660066;" parent="1" source="1RaYKFJEqEAShc90S2Od-2" target="Qt3NXMY1zpIQPhPqf40f-7" edge="1">
          <mxGeometry relative="1" as="geometry" />
        </mxCell>
        <mxCell id="ibY6LeiVj6x5H_j3fpKV-3" style="edgeStyle=orthogonalEdgeStyle;rounded=0;orthogonalLoop=1;jettySize=auto;html=1;fillColor=#e1d5e7;strokeColor=#9673a6;strokeWidth=2;" edge="1" parent="1" source="1RaYKFJEqEAShc90S2Od-2" target="ibY6LeiVj6x5H_j3fpKV-2">
          <mxGeometry relative="1" as="geometry" />
        </mxCell>
        <mxCell id="1RaYKFJEqEAShc90S2Od-2" value="" style="sketch=0;outlineConnect=0;fontColor=#232F3E;gradientColor=none;fillColor=#4D27AA;strokeColor=none;dashed=0;verticalLabelPosition=bottom;verticalAlign=top;align=center;html=1;fontSize=12;fontStyle=0;aspect=fixed;pointerEvents=1;shape=mxgraph.aws4.peering;" parent="1" vertex="1">
          <mxGeometry x="687" y="58" width="42" height="42" as="geometry" />
        </mxCell>
        <mxCell id="ibY6LeiVj6x5H_j3fpKV-2" value="" style="image;aspect=fixed;html=1;points=[];align=center;fontSize=12;image=img/lib/azure2/networking/Virtual_Networks.svg;fontColor=#000099;strokeColor=#FFB570;" vertex="1" parent="1">
          <mxGeometry x="1070" y="20" width="117.25" height="70" as="geometry" />
        </mxCell>
        <mxCell id="ibY6LeiVj6x5H_j3fpKV-24" style="edgeStyle=orthogonalEdgeStyle;rounded=0;orthogonalLoop=1;jettySize=auto;html=1;" edge="1" parent="1" source="ibY6LeiVj6x5H_j3fpKV-5" target="1RaYKFJEqEAShc90S2Od-1">
          <mxGeometry relative="1" as="geometry" />
        </mxCell>
        <mxCell id="ibY6LeiVj6x5H_j3fpKV-5" value="" style="image;aspect=fixed;html=1;points=[];align=center;fontSize=12;image=img/lib/azure2/networking/Application_Gateways.svg;" vertex="1" parent="1">
          <mxGeometry x="266" y="276" width="64" height="64" as="geometry" />
        </mxCell>
        <mxCell id="ibY6LeiVj6x5H_j3fpKV-12" value="" style="image;aspect=fixed;html=1;points=[];align=center;fontSize=12;image=img/lib/azure2/networking/Public_IP_Addresses.svg;" vertex="1" parent="1">
          <mxGeometry x="1129" y="281.5" width="51.25" height="41" as="geometry" />
        </mxCell>
        <mxCell id="ibY6LeiVj6x5H_j3fpKV-14" value="Public IP" style="text;html=1;strokeColor=none;fillColor=none;align=center;verticalAlign=middle;whiteSpace=wrap;rounded=0;fontColor=#000099;" vertex="1" parent="1">
          <mxGeometry x="1094.63" y="331" width="120" height="30" as="geometry" />
        </mxCell>
        <mxCell id="ibY6LeiVj6x5H_j3fpKV-20" value="" style="edgeStyle=orthogonalEdgeStyle;rounded=0;orthogonalLoop=1;jettySize=auto;html=1;entryX=1.014;entryY=0.472;entryDx=0;entryDy=0;entryPerimeter=0;fillColor=#a20025;strokeColor=#990000;fontColor=#000099;" edge="1" parent="1" source="JJQ9AiGBg8sY08W0kX3o-1" target="ibY6LeiVj6x5H_j3fpKV-19">
          <mxGeometry relative="1" as="geometry">
            <mxPoint x="690" y="363" as="sourcePoint" />
            <mxPoint x="539" y="307" as="targetPoint" />
          </mxGeometry>
        </mxCell>
        <mxCell id="ibY6LeiVj6x5H_j3fpKV-19" value="" style="image;aspect=fixed;html=1;points=[];align=center;fontSize=12;image=img/lib/azure2/networking/Private_Endpoint.svg;" vertex="1" parent="1">
          <mxGeometry x="600" y="287" width="43.64" height="40" as="geometry" />
        </mxCell>
        <mxCell id="ibY6LeiVj6x5H_j3fpKV-22" value="" style="edgeStyle=orthogonalEdgeStyle;rounded=0;orthogonalLoop=1;jettySize=auto;html=1;strokeColor=#990000;fontColor=#000099;" edge="1" parent="1" target="ibY6LeiVj6x5H_j3fpKV-21">
          <mxGeometry relative="1" as="geometry">
            <mxPoint x="730" y="368" as="sourcePoint" />
            <mxPoint x="960" y="305" as="targetPoint" />
            <Array as="points" />
          </mxGeometry>
        </mxCell>
        <mxCell id="ibY6LeiVj6x5H_j3fpKV-21" value="" style="image;aspect=fixed;html=1;points=[];align=center;fontSize=12;image=img/lib/azure2/networking/Private_Endpoint.svg;" vertex="1" parent="1">
          <mxGeometry x="810" y="348" width="43.64" height="40" as="geometry" />
        </mxCell>
      </root>
    </mxGraphModel>
  </diagram>
</mxfile>
